<svg width="512" height="512" viewBox="0 0 512 512" fill="none" xmlns="http://www.w3.org/2000/svg">
    <path d="M0 8C0 3.58172 3.58172 0 8 0H504C508.418 0 512 3.58172 512 8V504C512 508.418 508.418 512 504 512H8C3.58172 512 0 508.418 0 504V8Z" fill="white"/>
    <svg xmlns="http://www.w3.org/2000/svg" viewBox="0 0 61 61" shape-rendering="crispEdges" height="512" width="512" x="0" y="0"><path stroke="#000000" d="M4 4.5h7m2 0h1m1 0h2m3 0h1m1 0h1m1 0h3m5 0h1m3 0h2m1 0h6m1 0h1m3 0h7M4 5.5h1m5 0h1m2 0h1m1 0h1m1 0h5m5 0h1m2 0h2m3 0h1m1 0h2m4 0h1m1 0h3m2 0h1m5 0h1M4 6.5h1m1 0h3m1 0h1m1 0h2m5 0h2m3 0h1m3 0h2m1 0h4m1 0h2m1 0h2m2 0h1m3 0h1m2 0h1m1 0h3m1 0h1M4 7.5h1m1 0h3m1 0h1m1 0h2m2 0h2m1 0h2m2 0h2m3 0h4m1 0h1m1 0h1m4 0h7m1 0h1m1 0h1m1 0h3m1 0h1M4 8.5h1m1 0h3m1 0h1m3 0h1m1 0h3m1 0h2m2 0h3m1 0h6m2 0h3m1 0h1m1 0h2m2 0h1m3 0h1m1 0h3m1 0h1M4 9.5h1m5 0h1m5 0h2m4 0h2m4 0h1m3 0h3m1 0h1m1 0h9m3 0h1m5 0h1M4 10.5h7m1 0h1m1 0h1m1 0h1m1 0h1m1 0h1m1 0h1m1 0h1m1 0h1m1 0h1m1 0h1m1 0h1m1 0h1m1 0h1m1 0h1m1 0h1m1 0h1m1 0h1m1 0h1m1 0h1m1 0h7M14 11.5h3m1 0h2m1 0h1m1 0h3m2 0h1m3 0h2m1 0h2m2 0h1m1 0h2m1 0h3M7 12.5h2m1 0h2m1 0h1m1 0h1m1 0h4m2 0h1m2 0h1m1 0h7m1 0h1m1 0h1m1 0h3m1 0h1m1 0h3m4 0h2M4 13.5h2m3 0h1m1 0h8m1 0h3m1 0h2m4 0h1m2 0h3m5 0h2m2 0h2m1 0h1m1 0h1m2 0h1M6 14.5h2m1 0h3m2 0h3m1 0h1m2 0h1m4 0h1m2 0h4m1 0h1m1 0h1m3 0h1m3 0h2m1 0h1m2 0h1m1 0h3M4 15.5h3m2 0h1m1 0h1m2 0h4m5 0h4m4 0h1m1 0h3m3 0h1m1 0h3m3 0h5m3 0h2M4 16.5h2m1 0h4m3 0h1m1 0h1m2 0h1m3 0h2m1 0h8m1 0h2m1 0h1m1 0h1m1 0h3m1 0h1m2 0h2m1 0h1m2 0h1M4 17.5h2m1 0h3m7 0h3m3 0h3m3 0h1m2 0h4m2 0h1m2 0h3m2 0h3m5 0h1m1 0h1M4 18.5h1m2 0h1m2 0h2m2 0h3m2 0h2m1 0h1m2 0h3m1 0h1m1 0h1m1 0h5m1 0h2m1 0h4m1 0h1m3 0h2m1 0h3M6 19.5h2m4 0h1m2 0h1m3 0h2m1 0h2m1 0h2m1 0h1m1 0h2m2 0h1m8 0h1m1 0h2m1 0h1m1 0h1m3 0h2M5 20.5h2m3 0h1m1 0h2m1 0h1m1 0h2m4 0h2m7 0h1m3 0h2m1 0h5m2 0h1m2 0h1m2 0h2m2 0h1M7 21.5h3m4 0h1m1 0h1m1 0h1m1 0h2m1 0h1m1 0h1m1 0h2m1 0h2m2 0h1m1 0h1m2 0h2m3 0h3m3 0h2m1 0h1M6 22.5h3m1 0h3m3 0h3m4 0h1m2 0h1m4 0h3m2 0h1m2 0h2m3 0h2m1 0h1m4 0h3m1 0h1M4 23.5h2m1 0h3m4 0h2m4 0h2m1 0h2m1 0h3m1 0h3m1 0h1m1 0h3m1 0h2m2 0h3m1 0h2m1 0h1m2 0h1M4 24.5h1m1 0h1m1 0h5m1 0h1m2 0h2m1 0h1m1 0h2m2 0h1m2 0h3m1 0h3m3 0h1m3 0h4m1 0h1m1 0h1m1 0h5M4 25.5h1m1 0h2m4 0h6m2 0h3m2 0h2m1 0h2m1 0h2m1 0h1m1 0h3m2 0h2m3 0h1m1 0h6m1 0h1M9 26.5h4m2 0h3m2 0h3m1 0h1m2 0h4m2 0h2m1 0h2m9 0h2m1 0h1m1 0h4M4 27.5h1m3 0h2m1 0h5m9 0h2m7 0h1m2 0h1m3 0h1m1 0h1m6 0h1m5 0h1M5 28.5h1m1 0h10m1 0h2m5 0h2m1 0h5m2 0h2m1 0h3m1 0h1m1 0h1m1 0h1m1 0h5m2 0h2M4 29.5h1m1 0h1m1 0h1m3 0h2m2 0h3m1 0h1m1 0h3m3 0h1m3 0h2m4 0h3m1 0h3m1 0h1m1 0h1m3 0h1m1 0h1m1 0h1M4 30.5h3m1 0h1m1 0h1m1 0h1m2 0h4m1 0h3m1 0h1m2 0h2m1 0h1m1 0h2m4 0h2m2 0h1m1 0h2m1 0h2m1 0h1m1 0h1m1 0h3M8 31.5h1m3 0h1m2 0h1m2 0h1m2 0h2m5 0h1m3 0h1m2 0h1m2 0h2m1 0h2m2 0h2m1 0h1m3 0h3M4 32.5h1m1 0h9m2 0h5m1 0h10m1 0h4m1 0h2m1 0h1m4 0h6m2 0h1M4 33.5h1m2 0h3m4 0h1m5 0h5m1 0h1m1 0h1m1 0h2m1 0h1m3 0h4m5 0h1m1 0h1m2 0h3M5 34.5h2m3 0h3m2 0h1m3 0h1m2 0h2m2 0h2m1 0h2m4 0h1m1 0h1m1 0h2m3 0h2m1 0h4m1 0h1m1 0h1m1 0h1M4 35.5h4m4 0h1m1 0h1m1 0h2m1 0h1m1 0h1m1 0h1m2 0h1m1 0h2m1 0h3m1 0h2m1 0h2m1 0h5m2 0h4m2 0h3M4 36.5h1m1 0h2m1 0h3m2 0h3m1 0h2m4 0h1m1 0h1m3 0h1m2 0h1m1 0h1m3 0h2m1 0h4m1 0h2m1 0h1m3 0h1M5 37.5h2m1 0h1m2 0h2m3 0h2m2 0h1m3 0h1m1 0h1m1 0h3m1 0h1m2 0h2m2 0h2m1 0h5m1 0h1m2 0h3m1 0h1M4 38.5h3m1 0h3m1 0h4m1 0h2m1 0h3m1 0h6m3 0h4m1 0h1m1 0h2m2 0h1m6 0h2m2 0h1M5 39.5h2m1 0h1m3 0h2m1 0h1m1 0h2m5 0h2m1 0h1m3 0h2m10 0h1m2 0h2m4 0h2m2 0h1M4 40.5h1m1 0h1m1 0h3m2 0h13m5 0h1m1 0h2m2 0h1m1 0h3m1 0h6m1 0h1m2 0h1m1 0h1M4 41.5h1m2 0h3m1 0h3m1 0h5m1 0h1m1 0h9m2 0h2m1 0h6m3 0h1m4 0h4m1 0h1M7 42.5h1m1 0h3m1 0h2m1 0h3m2 0h3m1 0h1m2 0h1m2 0h1m2 0h1m5 0h1m1 0h1m1 0h2m1 0h1m1 0h2m1 0h1m1 0h3M4 43.5h3m1 0h1m2 0h2m1 0h3m1 0h3m3 0h2m1 0h3m1 0h1m2 0h4m3 0h1m4 0h4m4 0h1M9 44.5h3m1 0h1m2 0h3m1 0h1m1 0h1m1 0h3m2 0h1m2 0h2m1 0h2m3 0h2m1 0h1m4 0h1m6 0h1M6 45.5h2m3 0h2m1 0h4m5 0h1m1 0h3m3 0h2m1 0h1m6 0h1m1 0h10m1 0h2M4 46.5h2m1 0h5m6 0h3m1 0h2m4 0h2m4 0h2m3 0h2m3 0h2m1 0h5m1 0h4M5 47.5h2m4 0h1m3 0h2m3 0h1m2 0h1m2 0h1m3 0h1m1 0h3m3 0h1m2 0h4m1 0h1m1 0h3m1 0h3M7 48.5h1m2 0h2m4 0h1m2 0h3m1 0h2m1 0h1m1 0h5m2 0h2m1 0h3m1 0h11m1 0h1m1 0h1M12 49.5h1m1 0h1m2 0h2m1 0h5m3 0h1m3 0h2m1 0h2m1 0h1m3 0h5m1 0h1m3 0h3M4 50.5h7m1 0h3m1 0h1m3 0h1m3 0h1m2 0h2m1 0h1m1 0h1m3 0h3m1 0h2m1 0h1m1 0h1m1 0h2m1 0h1m1 0h2M4 51.5h1m5 0h1m3 0h2m1 0h2m1 0h1m1 0h2m1 0h1m1 0h2m3 0h1m1 0h1m1 0h2m4 0h1m5 0h1m3 0h1m3 0h1M4 52.5h1m1 0h3m1 0h1m1 0h1m1 0h1m1 0h1m1 0h3m2 0h3m2 0h6m1 0h4m1 0h1m1 0h1m1 0h1m3 0h5m2 0h2M4 53.5h1m1 0h3m1 0h1m1 0h1m2 0h1m5 0h1m1 0h1m2 0h2m1 0h2m6 0h1m2 0h3m2 0h2m2 0h1m1 0h1m2 0h1m1 0h1M4 54.5h1m1 0h3m1 0h1m2 0h1m2 0h5m1 0h5m2 0h1m1 0h3m1 0h1m1 0h2m2 0h3m3 0h1m1 0h2m1 0h3m1 0h1M4 55.5h1m5 0h1m3 0h6m1 0h1m1 0h2m1 0h2m2 0h2m3 0h1m1 0h1m2 0h3m3 0h5m1 0h1m1 0h1m1 0h1M4 56.5h7m4 0h2m1 0h1m5 0h1m1 0h3m2 0h1m2 0h2m2 0h3m8 0h2m1 0h2"/></svg>

    <rect x="214.0327868852459" y="214.0327868852459" width="83.9344262295082" height="83.9344262295082" fill="black" stroke="white" stroke-width="8.89344262295082"/>
    <svg x="214.0327868852459" y="214.0327868852459" width="83.9344262295082" height="83.9344262295082" viewBox="0 0 116 116" fill="none" xmlns="http://www.w3.org/2000/svg">
      <path d="M63.9114 35.4964L52.1135 35.4964L30.6671 76.3932L39.9023 81.2706L58.0329 46.7391L76.1169 81.2829L85.333 76.3847L63.9114 35.4964Z" fill="white"/>
    </svg>
  </svg>